<svg xmlns="http://www.w3.org/2000/svg" xmlns:xlink="http://www.w3.org/1999/xlink" width="100" zoomAndPan="magnify" viewBox="0 0 75 74.999997" height="100" preserveAspectRatio="xMidYMid meet" version="1.0"><defs><clipPath id="id1"><path d="M 8 0 L 69.75 0 L 69.75 75 L 8 75 Z M 8 0 " clip-rule="nonzero"/></clipPath></defs><g clip-path="url(#id1)"><path fill="rgb(0%, 0%, 0%)" d="M 59.652344 39.742188 C 59.757812 51.066406 69.585938 54.832031 69.695312 54.878906 C 69.609375 55.144531 68.125 60.25 64.515625 65.519531 C 61.398438 70.078125 58.164062 74.621094 53.0625 74.710938 C 48.054688 74.804688 46.445312 71.742188 40.71875 71.742188 C 34.992188 71.742188 33.203125 74.621094 28.460938 74.804688 C 23.539062 74.992188 19.792969 69.878906 16.648438 65.335938 C 10.226562 56.046875 5.316406 39.09375 11.910156 27.644531 C 15.183594 21.960938 21.035156 18.359375 27.386719 18.269531 C 32.21875 18.175781 36.78125 21.519531 39.734375 21.519531 C 42.6875 21.519531 48.230469 17.5 54.054688 18.089844 C 56.496094 18.191406 63.339844 19.074219 67.738281 25.511719 C 67.382812 25.730469 59.570312 30.277344 59.652344 39.742188 M 50.238281 11.945312 C 52.851562 8.78125 54.609375 4.378906 54.128906 0 C 50.367188 0.152344 45.8125 2.507812 43.109375 5.671875 C 40.691406 8.46875 38.570312 12.949219 39.140625 17.242188 C 43.339844 17.566406 47.625 15.109375 50.238281 11.945312 " fill-opacity="1" fill-rule="nonzero"/></g></svg>